<?xml version="1.0" encoding="UTF-8"?>
<svg xmlns="http://www.w3.org/2000/svg" xmlns:xlink="http://www.w3.org/1999/xlink" width="24pt" height="24pt" viewBox="0 0 24 24" version="1.1">
<defs>
<clipPath id="clip1">
  <path d="M 6 3 L 18 3 L 18 21 L 6 21 Z M 6 3 "/>
</clipPath>
<clipPath id="clip2">
  <path d="M 16.648438 3.351563 C 16.179688 2.882813 15.421875 2.882813 14.953125 3.351563 L 6.980469 11.324219 C 6.605469 11.699219 6.605469 12.300781 6.980469 12.675781 L 14.953125 20.648438 C 15.421875 21.117188 16.179688 21.117188 16.648438 20.648438 C 17.121094 20.175781 17.121094 19.417969 16.648438 18.949219 L 9.703125 11.996094 L 16.660156 5.039063 C 17.121094 4.582031 17.121094 3.8125 16.648438 3.351563 Z M 16.648438 3.351563 "/>
</clipPath>
<clipPath id="clip4">
  <path d="M 10.648438 0.351563 C 10.179688 -0.117188 9.421875 -0.117188 8.953125 0.351563 L 0.980469 8.324219 C 0.605469 8.699219 0.605469 9.300781 0.980469 9.675781 L 8.953125 17.648438 C 9.421875 18.117188 10.179688 18.117188 10.648438 17.648438 C 11.121094 17.175781 11.121094 16.417969 10.648438 15.949219 L 3.703125 8.996094 L 10.660156 2.039063 C 11.121094 1.582031 11.121094 0.8125 10.648438 0.351563 Z M 10.648438 0.351563 "/>
</clipPath>
<clipPath id="clip3">
  <rect width="12" height="18"/>
</clipPath>
<g id="surface4" clip-path="url(#clip3)">
<g clip-path="url(#clip4)" clip-rule="nonzero">
<rect x="0" y="0" width="12" height="18" style="fill:rgb(100%,100%,100%);fill-opacity:1;stroke:none;"/>
</g>
</g>
</defs>
<g id="surface1">
<g clip-path="url(#clip1)" clip-rule="nonzero">
<g clip-path="url(#clip2)" clip-rule="nonzero">
<use xlink:href="#surface4" transform="matrix(1,0,0,1,6,3)"/>
</g>
</g>
</g>
</svg>
